HIERARCHY
ROOT Hips
{
  OFFSET 0 0 0
  CHANNELS 6 Xposition Yposition Zposition Zrotation Yrotation Xrotation
  JOINT LeftThigh
  {
    OFFSET 8.409438 0 -5.917753
    CHANNELS 3 Zrotation Yrotation Xrotation
    JOINT LeftLeg
    {
      OFFSET 0 0 -42.358652
      CHANNELS 3 Zrotation Yrotation Xrotation
      JOINT LeftFoot
      {
        OFFSET 0 0 -39.357303
        CHANNELS 3 Zrotation Yrotation Xrotation
      }
    }
  }
  JOINT RightThigh
  {
    OFFSET -8.409438 0 -5.917753
    CHANNELS 3 Zrotation Yrotation Xrotation
    JOINT RightLeg
    {
      OFFSET 0 0 -42.358652
      CHANNELS 3 Zrotation Yrotation Xrotation
      JOINT RightFoot
      {
        OFFSET 0 0 -39.357303
        CHANNELS 3 Zrotation Yrotation Xrotation
      }
    }
  }
  JOINT SpineLow
  {
    OFFSET 0 0 4.719101
    CHANNELS 3 Zrotation Yrotation Xrotation
    JOINT SpineMid
    {
      OFFSET 0 0 12.899191
      CHANNELS 3 Zrotation Yrotation Xrotation
      JOINT Chest
      {
        OFFSET 0 0 12.899191
        CHANNELS 3 Zrotation Yrotation Xrotation
        JOINT LeftShoulder
        {
          OFFSET 7.550562 1.41573 9.438202
          CHANNELS 3 Zrotation Yrotation Xrotation
          JOINT LeftArm
          {
            OFFSET 9.155056 0 4.247191
            CHANNELS 3 Zrotation Yrotation Xrotation
            JOINT LeftForearm
            {
              OFFSET 0 0 25.771955
              CHANNELS 3 Zrotation Yrotation Xrotation
              JOINT LeftHand
              {
                OFFSET 0 0 25.197169
                CHANNELS 3 Zrotation Yrotation Xrotation
              }
            }
          }
        }
        JOINT RightShoulder
        {
          OFFSET -7.550562 1.41573 9.438202
          CHANNELS 3 Zrotation Yrotation Xrotation
          JOINT RightArm
          {
            OFFSET -9.155056 0 4.247191
            CHANNELS 3 Zrotation Yrotation Xrotation
            JOINT RightForearm
            {
              OFFSET 0 0 -25.771955
              CHANNELS 3 Zrotation Yrotation Xrotation
              JOINT RightHand
              {
                OFFSET 0 0 -25.197169
                CHANNELS 3 Zrotation Yrotation Xrotation
              }
            }
          }
        }
        JOINT Neck
        {
          OFFSET 0 0 15.101124
          CHANNELS 3 Zrotation Yrotation Xrotation
          JOINT Head
          {
            OFFSET 0 0 11.325843
            CHANNELS 3 Zrotation Yrotation Xrotation
            End Site
            {
              OFFSET 0 0 14.157303
            }
          }
        }
      }
    }
  }
}
MOTION
Frames: 11
Frame Time: 0.0
0.0  101.685394  0.0  -1.010973  -18.864514  -101.195975  21.9779  -18.841114  7.16877  -1.64536  6.278721  25.33365  13.601098  4.606166  6.533101  8.621823  9.410906  -2.307753  5.531055  6.391724  18.541363  3.281205  1.642638  -4.293447  -1.471231  -0.12309  3.254112  -4.029645  -0.137961  8.898505  -4.029645  -0.137961  8.898505  -14.743462  27.065044  1.237221  -133.128928  67.71365  -89.407629  -17.231014  -28.649098  116.174959  121.999262  33.727568  -15.850164  6.529883  -1.639699  17.760716  58.157169  25.684039  19.745225  -51.086679  30.17394  -91.09536  74.271274  23.82789  31.452631  9.906531  1.141786  -5.488036  7.440615  0.767679  -4.13569  
0.0  101.685394  0.0  -1.048687  -19.693939  -101.107106  22.535874  -18.995698  6.92536  -1.223451  6.175231  25.760538  12.803241  4.628836  6.315193  9.643459  8.977675  -2.553392  5.694529  6.533713  18.89906  3.348785  1.633801  -4.338491  -1.399118  -0.124395  3.291866  -3.833127  -0.149025  9.001734  -3.833127  -0.149025  9.001734  -14.794243  26.708693  1.079853  -133.076251  67.583896  -89.656982  -17.336115  -28.597872  116.427257  121.974798  33.773451  -15.709497  6.848792  -1.959742  17.481698  59.271178  26.867209  20.465288  -51.312993  30.188501  -91.160676  74.369169  23.713334  31.192025  10.231526  1.242172  -5.722649  7.685772  0.836173  -4.314052  
0.0  101.685394  0.0  -1.108522  -20.581691  -101.061264  23.443586  -19.269885  6.776744  -1.178063  6.028089  26.001666  11.971094  4.718145  6.098509  10.764747  8.451473  -2.800323  5.917114  6.647162  19.255315  2.772431  1.673041  -4.282236  -1.304628  -0.121422  3.32595  -3.575004  -0.151926  9.094676  -3.575004  -0.151926  9.094676  -14.783874  26.432934  1.013047  -132.931393  67.414821  -89.836219  -17.429461  -28.530293  116.868405  121.935148  33.77192  -15.493674  6.928634  -2.344225  17.309185  60.623077  28.067608  21.318048  -51.587977  30.186989  -91.275268  74.539758  23.428463  31.014413  10.475302  1.239171  -5.93956  7.869093  0.827936  -4.4773  
0.0  101.685394  0.0  -1.114164  -21.316408  -101.045628  24.244601  -19.517356  6.613709  -1.327155  6.009165  26.302519  11.156316  4.7989  5.773425  11.734472  8.055058  -3.082369  5.916208  6.766911  19.663227  2.415475  1.663797  -4.116533  -1.241179  -0.112506  3.339226  -3.400725  -0.135649  9.130463  -3.400725  -0.135649  9.130463  -14.689673  26.169114  1.108154  -132.705122  67.236934  -89.825229  -17.586154  -28.441344  117.212923  121.858669  33.721724  -15.245629  7.223317  -2.653074  17.212625  61.844241  29.160668  22.197604  -51.83757  30.154579  -91.308852  74.806016  23.100914  30.471206  10.849322  1.336061  -6.063565  8.150828  0.894823  -4.572901  
0.0  101.685394  0.0  -1.17932  -22.022388  -101.09189  25.004083  -19.800076  6.567444  -1.827122  6.007455  26.426998  10.834671  4.95502  5.650885  12.470886  7.663166  -3.34589  5.905428  6.959723  20.234566  2.452011  1.581576  -4.047603  -1.225465  -0.115533  3.354379  -3.358291  -0.145302  9.172021  -3.358291  -0.145302  9.172021  -14.025203  26.148887  1.289774  -132.590939  66.961492  -89.896834  -17.684281  -28.227871  117.854957  121.751046  33.621869  -14.950927  7.586546  -2.813011  17.22594  63.309619  30.270739  23.143907  -52.101268  30.199717  -91.377175  75.07314  22.559877  29.952473  11.398112  1.36923  -6.111453  8.562883  0.913404  -4.610817  
0.0  101.685394  0.0  -1.093455  -22.494531  -101.180248  25.473023  -19.928619  6.4937  -2.398052  6.174151  26.688388  10.695209  5.038743  5.477989  12.719061  7.376014  -3.594926  5.702019  7.307004  20.866623  2.660193  1.542871  -4.048258  -1.188846  -0.08952  3.386149  -3.254792  -0.077884  9.257533  -3.254792  -0.077884  9.257533  -13.913921  25.851004  1.287206  -132.431571  66.758558  -89.822514  -17.866224  -28.03673  118.210845  121.615699  33.454588  -14.58317  7.680614  -2.913261  17.152279  64.698511  31.35707  23.949204  -52.356664  30.276123  -91.397272  75.321429  22.187801  28.954086  11.849815  1.480658  -6.255049  8.903125  0.989751  -4.721848  
0.0  101.685394  0.0  -0.966535  -22.780974  -101.288  25.727103  -20.079624  6.440609  -2.893554  6.470713  27.054033  10.674622  5.125082  5.314673  12.058543  7.038102  -3.937116  5.814515  7.89344  21.511185  3.366344  1.418132  -4.008937  -1.223263  -0.064401  3.391003  -3.345134  -0.00434  9.269497  -3.345134  -0.00434  9.269497  -13.272362  25.806807  1.429549  -132.365618  66.50323  -89.792036  -17.983417  -27.792107  118.706653  121.677068  33.340063  -13.880059  7.878193  -2.90322  17.105918  66.370137  32.265344  24.96645  -52.733294  30.442028  -91.449739  75.435402  22.284372  27.532552  12.568257  1.545633  -6.233521  9.442547  1.031648  -4.709016  
0.0  101.685394  0.0  -0.797264  -22.690245  -101.347774  25.575828  -20.101573  6.263178  -3.414541  6.853341  27.475555  10.846818  5.182719  5.217669  10.780144  6.67702  -4.136212  6.263381  8.662987  22.012268  3.994763  1.27928  -3.963109  -1.245389  -0.025598  3.405199  -3.399994  0.105282  9.306256  -3.399994  0.105282  9.306257  -13.189354  25.57096  1.386473  -132.258239  66.295907  -89.569252  -18.05271  -27.626906  118.929623  121.564781  33.115534  -13.502706  7.840836  -2.877739  16.96207  67.843952  33.069377  25.844361  -53.037404  30.534904  -91.542885  76.005265  22.742823  26.062291  12.9881  1.606192  -6.366849  9.758422  1.070013  -4.811549  
0.0  101.685394  0.0  -0.625822  -22.140665  -101.349187  25.06166  -19.991795  5.944716  -3.803281  7.228767  28.024845  10.608896  5.142641  4.918596  8.423275  6.553998  -4.449643  7.269297  9.265987  22.489913  4.706253  1.158982  -3.896171  -1.318989  0.013391  3.403205  -3.595253  0.221811  9.298437  -3.595253  0.221811  9.298437  -12.920824  25.512704  1.382266  -132.239823  65.476806  -90.067284  -17.882149  -27.706886  119.079989  120.546713  32.107741  -14.025986  7.680532  -2.766559  16.844996  69.286253  33.738476  26.685031  -53.300902  30.634059  -91.789232  77.100089  23.236337  24.675382  13.385087  1.620859  -6.463107  10.056617  1.074809  -4.885299  
0.0  101.685394  0.0  -0.416358  -21.069984  -101.338168  24.224208  -19.726365  5.474149  -4.039688  7.552033  28.737316  10.45927  5.131206  4.813997  5.324593  6.819597  -4.885364  8.664681  9.529938  23.009353  5.31005  1.081425  -3.811  -1.439761  0.064449  3.385636  -3.91761  0.376918  9.246777  -3.91761  0.376918  9.246777  -12.960044  25.395676  1.28759  -132.585273  65.243915  -89.978861  -17.75983  -27.581089  119.207616  120.574203  31.972747  -13.706331  7.498379  -2.610598  16.781077  70.44104  34.267924  27.381526  -53.672474  30.713686  -92.078317  78.62474  23.835741  23.28318  13.65109  1.585582  -6.564541  10.256095  1.043275  -4.96146  
0.0  101.685394  0.0  -0.141574  -19.109238  -101.226131  22.885373  -19.227681  4.735556  -4.375299  7.869114  29.550279  10.04801  5.043207  4.665786  1.719458  7.375297  -5.305086  9.834554  9.668345  23.385172  5.835625  1.118305  -3.707276  -1.666294  0.12666  3.344944  -4.527243  0.57534  9.129555  -4.527244  0.57534  9.129555  -13.038837  25.343231  1.11841  -133.487645  64.950097  -90.168006  -17.521074  -27.367643  119.308604  121.885144  32.885829  -12.052591  7.263901  -2.464767  16.647815  71.407153  34.603965  28.079937  -54.206022  31.034786  -92.495504  80.156741  24.415606  21.860239  13.829317  1.503238  -6.665445  10.38925  0.977286  -5.035886  
